# xmcd
#
# Track frame offsets:
#	150
#	16910
#	30993
#	55401
#	71566
#	84816
#	99549
#	108823
#	119506
#	135504
#	143167
#	156560
#	175350
#
# Disc length: 2522 seconds
#
# Revision: 0
# Processed by: cddbd v1.5.2PL0 Copyright (c) Steve Scherf et al.
# Submitted via: EasyCDDAExtractor 10.2.0.1
#
DISCID=a709d80d
DTITLE=Acouistic Blues Drifter
DYEAR=2007
DGENRE=Blues
TTITLE0=Angelina
TTITLE1=Ain't No Trouble
TTITLE2=ST. James Infirmary Blues
TTITLE3=Setting Me Up
TTITLE4=Swint It!
TTITLE5=Perpetual Blues Machine
TTITLE6=Harp Boogie
TTITLE7=Am I Wrong
TTITLE8=If Taxes Were Low
TTITLE9=Guru Man Blues
TTITLE10=Watch Him Fly
TTITLE11=Neighbour
TTITLE12=I Don't Care
EXTD=
EXTT0=
EXTT1=
EXTT2=
EXTT3=
EXTT4=
EXTT5=
EXTT6=
EXTT7=
EXTT8=
EXTT9=
EXTT10=
EXTT11=
EXTT12=
PLAYORDER=
